<?xml version="1.0" encoding="UTF-8"?>
<svg width="13px" height="22px" viewBox="0 0 13 22" version="1.1" xmlns="http://www.w3.org/2000/svg" xmlns:xlink="http://www.w3.org/1999/xlink">
    <!-- Generator: Sketch 49.1 (51147) - http://www.bohemiancoding.com/sketch -->
    <title>money icon</title>
    <desc>Created with Sketch.</desc>
    <defs></defs>
    <g id="money-icon" stroke="none" stroke-width="1" fill="none" fill-rule="evenodd">
        <path d="M7.01777778,9.65555556 C4.24333333,8.93444444 3.35111111,8.18888889 3.35111111,7.02777778 C3.35111111,5.69555556 4.58555556,4.76666667 6.65111111,4.76666667 C8.82666667,4.76666667 9.63333333,5.80555556 9.70666667,7.33333333 L12.4077778,7.33333333 C12.3222222,5.23111111 11.0388889,3.3 8.48444444,2.67666667 L8.48444444,0 L4.81777778,0 L4.81777778,2.64 C2.44666667,3.15333333 0.54,4.69333333 0.54,7.05222222 C0.54,9.87555556 2.87444444,11.2811111 6.28444444,12.1 C9.34,12.8333333 9.95111111,13.9088889 9.95111111,15.0455556 C9.95111111,15.8888889 9.35222222,17.2333333 6.65111111,17.2333333 C4.13333333,17.2333333 3.14333333,16.1088889 3.00888889,14.6666667 L0.32,14.6666667 C0.466666667,17.3433333 2.47111111,18.8466667 4.81777778,19.3477778 L4.81777778,22 L8.48444444,22 L8.48444444,19.3722222 C10.8677778,18.92 12.7622222,17.5388889 12.7622222,15.0333333 C12.7622222,11.5622222 9.79222222,10.3766667 7.01777778,9.65555556 Z" id="Shape" fill="#8D96A1" fill-rule="nonzero"></path>
    </g>
</svg>